<mxfile host="app.diagrams.net" agent="Mozilla/5.0 (Windows NT 10.0; Win64; x64) AppleWebKit/537.36 (KHTML, like Gecko) Chrome/136.0.0.0 Safari/537.36 Edg/136.0.0.0" version="27.0.3">
  <diagram name="第 1 页" id="UnQBvwtlTV-m-IVPgMHG">
    <mxGraphModel dx="2327" dy="826" grid="1" gridSize="10" guides="1" tooltips="1" connect="1" arrows="1" fold="1" page="1" pageScale="1" pageWidth="827" pageHeight="1169" math="0" shadow="0">
      <root>
        <mxCell id="0" />
        <mxCell id="1" parent="0" />
        <mxCell id="V8n_6WFoGWLq74GIhV5c-1" value="" style="rounded=0;whiteSpace=wrap;html=1;" parent="1" vertex="1">
          <mxGeometry x="-10" y="360" width="480" height="270" as="geometry" />
        </mxCell>
        <mxCell id="V8n_6WFoGWLq74GIhV5c-2" value="&lt;span style=&quot;font-size: 16px;&quot;&gt;E&lt;/span&gt;&lt;div&gt;&lt;span style=&quot;font-size: 16px;&quot;&gt;S&lt;/span&gt;&lt;/div&gt;&lt;div&gt;&lt;span style=&quot;font-size: 16px;&quot;&gt;P&lt;/span&gt;&lt;/div&gt;&lt;div&gt;&lt;span style=&quot;font-size: 16px;&quot;&gt;3&lt;/span&gt;&lt;/div&gt;&lt;div&gt;&lt;span style=&quot;font-size: 16px;&quot;&gt;2&lt;/span&gt;&lt;/div&gt;&lt;div&gt;&lt;span style=&quot;font-size: 16px;&quot;&gt;微&lt;/span&gt;&lt;/div&gt;&lt;div&gt;&lt;span style=&quot;font-size: 16px;&quot;&gt;控&lt;/span&gt;&lt;/div&gt;&lt;div&gt;&lt;span style=&quot;font-size: 16px;&quot;&gt;制&lt;/span&gt;&lt;/div&gt;&lt;div&gt;&lt;span style=&quot;font-size: 16px;&quot;&gt;器&lt;/span&gt;&lt;/div&gt;" style="rounded=0;whiteSpace=wrap;html=1;" parent="1" vertex="1">
          <mxGeometry x="300" y="390" width="110" height="210" as="geometry" />
        </mxCell>
        <mxCell id="V8n_6WFoGWLq74GIhV5c-3" value="&lt;span style=&quot;font-size: 16px;&quot;&gt;人&lt;/span&gt;&lt;div&gt;&lt;span style=&quot;font-size: 16px;&quot;&gt;体&lt;/span&gt;&lt;/div&gt;&lt;div&gt;&lt;span style=&quot;font-size: 16px;&quot;&gt;红&lt;/span&gt;&lt;/div&gt;&lt;div&gt;&lt;span style=&quot;font-size: 16px;&quot;&gt;外&lt;/span&gt;&lt;/div&gt;&lt;div&gt;&lt;span style=&quot;font-size: 16px;&quot;&gt;传&lt;/span&gt;&lt;/div&gt;&lt;div&gt;&lt;span style=&quot;font-size: 16px;&quot;&gt;感&lt;/span&gt;&lt;/div&gt;&lt;div&gt;&lt;span style=&quot;font-size: 16px;&quot;&gt;器&lt;/span&gt;&lt;/div&gt;" style="rounded=0;whiteSpace=wrap;html=1;" parent="1" vertex="1">
          <mxGeometry x="40" y="392.5" width="110" height="205" as="geometry" />
        </mxCell>
        <mxCell id="V8n_6WFoGWLq74GIhV5c-4" value="" style="rounded=0;whiteSpace=wrap;html=1;" parent="1" vertex="1">
          <mxGeometry x="130" y="440" width="20" height="20" as="geometry" />
        </mxCell>
        <mxCell id="V8n_6WFoGWLq74GIhV5c-5" value="" style="rounded=0;whiteSpace=wrap;html=1;direction=south;" parent="1" vertex="1">
          <mxGeometry x="130" y="490" width="20" height="20" as="geometry" />
        </mxCell>
        <mxCell id="V8n_6WFoGWLq74GIhV5c-6" value="" style="rounded=0;whiteSpace=wrap;html=1;" parent="1" vertex="1">
          <mxGeometry x="130" y="540" width="20" height="20" as="geometry" />
        </mxCell>
        <mxCell id="V8n_6WFoGWLq74GIhV5c-7" value="" style="rounded=0;whiteSpace=wrap;html=1;" parent="1" vertex="1">
          <mxGeometry x="300" y="440" width="20" height="20" as="geometry" />
        </mxCell>
        <mxCell id="V8n_6WFoGWLq74GIhV5c-8" value="" style="rounded=0;whiteSpace=wrap;html=1;" parent="1" vertex="1">
          <mxGeometry x="300" y="490" width="20" height="20" as="geometry" />
        </mxCell>
        <mxCell id="V8n_6WFoGWLq74GIhV5c-9" value="" style="rounded=0;whiteSpace=wrap;html=1;" parent="1" vertex="1">
          <mxGeometry x="300" y="540" width="20" height="20" as="geometry" />
        </mxCell>
        <mxCell id="V8n_6WFoGWLq74GIhV5c-10" value="" style="endArrow=none;html=1;rounded=0;exitX=1;exitY=0.5;exitDx=0;exitDy=0;entryX=0;entryY=0.5;entryDx=0;entryDy=0;" parent="1" source="V8n_6WFoGWLq74GIhV5c-4" target="V8n_6WFoGWLq74GIhV5c-7" edge="1">
          <mxGeometry width="50" height="50" relative="1" as="geometry">
            <mxPoint x="250" y="480" as="sourcePoint" />
            <mxPoint x="300" y="430" as="targetPoint" />
          </mxGeometry>
        </mxCell>
        <mxCell id="V8n_6WFoGWLq74GIhV5c-11" value="" style="endArrow=none;html=1;rounded=0;exitX=1;exitY=0.5;exitDx=0;exitDy=0;entryX=0;entryY=0.5;entryDx=0;entryDy=0;" parent="1" edge="1">
          <mxGeometry width="50" height="50" relative="1" as="geometry">
            <mxPoint x="150" y="499.5" as="sourcePoint" />
            <mxPoint x="300" y="499.5" as="targetPoint" />
          </mxGeometry>
        </mxCell>
        <mxCell id="V8n_6WFoGWLq74GIhV5c-12" value="" style="endArrow=none;html=1;rounded=0;exitX=1;exitY=0.5;exitDx=0;exitDy=0;entryX=0;entryY=0.5;entryDx=0;entryDy=0;" parent="1" edge="1">
          <mxGeometry width="50" height="50" relative="1" as="geometry">
            <mxPoint x="150" y="549.5" as="sourcePoint" />
            <mxPoint x="300" y="549.5" as="targetPoint" />
          </mxGeometry>
        </mxCell>
        <mxCell id="V8n_6WFoGWLq74GIhV5c-13" value="&lt;font style=&quot;font-size: 16px;&quot;&gt;VCC&lt;/font&gt;" style="text;html=1;align=center;verticalAlign=middle;whiteSpace=wrap;rounded=0;" parent="1" vertex="1">
          <mxGeometry x="144" y="421" width="60" height="30" as="geometry" />
        </mxCell>
        <mxCell id="V8n_6WFoGWLq74GIhV5c-14" value="&lt;font style=&quot;font-size: 16px;&quot;&gt;&amp;nbsp; &amp;nbsp;OUT&lt;/font&gt;" style="text;html=1;align=center;verticalAlign=middle;whiteSpace=wrap;rounded=0;" parent="1" vertex="1">
          <mxGeometry x="140" y="472" width="60" height="30" as="geometry" />
        </mxCell>
        <mxCell id="V8n_6WFoGWLq74GIhV5c-15" value="&lt;font style=&quot;font-size: 16px;&quot;&gt;GND&lt;/font&gt;" style="text;html=1;align=center;verticalAlign=middle;whiteSpace=wrap;rounded=0;" parent="1" vertex="1">
          <mxGeometry x="145" y="523" width="60" height="30" as="geometry" />
        </mxCell>
        <mxCell id="V8n_6WFoGWLq74GIhV5c-16" value="&lt;span style=&quot;font-size: 16px;&quot;&gt;5V&lt;/span&gt;" style="text;html=1;align=center;verticalAlign=middle;whiteSpace=wrap;rounded=0;" parent="1" vertex="1">
          <mxGeometry x="245" y="423" width="60" height="30" as="geometry" />
        </mxCell>
        <mxCell id="V8n_6WFoGWLq74GIhV5c-17" value="&lt;font style=&quot;font-size: 16px;&quot;&gt;D2&lt;/font&gt;" style="text;html=1;align=center;verticalAlign=middle;whiteSpace=wrap;rounded=0;" parent="1" vertex="1">
          <mxGeometry x="246" y="473" width="60" height="30" as="geometry" />
        </mxCell>
        <mxCell id="V8n_6WFoGWLq74GIhV5c-18" value="&lt;font style=&quot;font-size: 16px;&quot;&gt;GND&lt;/font&gt;" style="text;html=1;align=center;verticalAlign=middle;whiteSpace=wrap;rounded=0;" parent="1" vertex="1">
          <mxGeometry x="246" y="523" width="60" height="30" as="geometry" />
        </mxCell>
      </root>
    </mxGraphModel>
  </diagram>
</mxfile>
